<svg xmlns="http://www.w3.org/2000/svg" id="prefix__그룹_3" width="30.423" height="30.423" data-name="그룹 3" viewBox="0 0 30.423 30.423">
    <defs>
        <style>
            .prefix__cls-1{fill:#fff}
        </style>
    </defs>
    <path id="prefix__패스_12" d="M1856.36 516.184a15.212 15.212 0 1 0 15.212 15.212 15.21 15.21 0 0 0-15.212-15.212zm0 28.084a12.872 12.872 0 1 1 12.872-12.872 12.872 12.872 0 0 1-12.872 12.872z" class="prefix__cls-1" data-name="패스 12" transform="translate(-1841.149 -516.184)"/>
    <path id="prefix__패스_13" d="M1861.819 527.967a1.17 1.17 0 0 0-.955.5 2.059 2.059 0 0 1-.8.674 2.044 2.044 0 0 1-1.754 0 2.1 2.1 0 0 1-.8-.672 1.17 1.17 0 0 0-2.128.672 1.16 1.16 0 0 0 .2.645.144.144 0 0 0 .018.026v.007a4.39 4.39 0 0 0 7.176 0l.018-.026a1.17 1.17 0 0 0-.976-1.818z" class="prefix__cls-1" data-name="패스 13" transform="translate(-1838.42 -513.925)"/>
</svg>
