<svg id="그룹_5" data-name="그룹 5" xmlns="http://www.w3.org/2000/svg" width="94.313" height="15.955" viewBox="0 0 94.313 15.955">
  <g id="그룹_4" data-name="그룹 4">
    <path id="패스_14" data-name="패스 14" d="M1877.385,523.541q1.343,0,1.343.768l-.1,4.463a2.5,2.5,0,0,1,1.031-.586,5.031,5.031,0,0,1,1.295-.2,6.941,6.941,0,0,1,2.054.239,3.57,3.57,0,0,1,1.57.912,4.344,4.344,0,0,1,1.007,1.692,7.892,7.892,0,0,1,.359,2.554,9.781,9.781,0,0,1-.253,2.327,4.75,4.75,0,0,1-.8,1.764,3.641,3.641,0,0,1-1.415,1.127,5.066,5.066,0,0,1-2.112.4,5.352,5.352,0,0,1-1.427-.2,2.551,2.551,0,0,1-1.188-.684q.022.718-.36.935a2.232,2.232,0,0,1-1.082.216,1.817,1.817,0,0,1-1.212-.288,1.675,1.675,0,0,1-.347-1.1c-.016-.24-.029-.662-.036-1.273s-.017-1.319-.024-2.135-.017-1.7-.024-2.65-.013-1.89-.013-2.82v-2.616c0-.815.007-1.511.025-2.086q0-.743,1.366-.745Zm3.215,13.747a2.649,2.649,0,0,0,.971-.156,1.312,1.312,0,0,0,.647-.574,3.191,3.191,0,0,0,.361-1.187,15.076,15.076,0,0,0,.107-1.993,6.581,6.581,0,0,0-.421-2.759,1.468,1.468,0,0,0-1.426-.84,1.946,1.946,0,0,0-.948.217,1.544,1.544,0,0,0-.637.7,4.081,4.081,0,0,0-.348,1.236,13.388,13.388,0,0,0-.107,1.858,5.347,5.347,0,0,0,.5,2.651A1.483,1.483,0,0,0,1880.6,537.288Z" transform="translate(-1875.657 -523.302)" fill="#fff"/>
    <path id="패스_15" data-name="패스 15" d="M1897.163,531.1a8.5,8.5,0,0,1,.132,1.236,2.15,2.15,0,0,1-.156.925,1.24,1.24,0,0,1-.552.6,2.1,2.1,0,0,1-1.031.216q-.72.025-1.561.038t-1.715.011c-.582,0-1.163,0-1.738-.011s-1.114-.012-1.609-.012a3.98,3.98,0,0,0,.395,1.294,2.331,2.331,0,0,0,1.514,1.2,4.155,4.155,0,0,0,1.019.118,8.854,8.854,0,0,0,1.175-.084,6.028,6.028,0,0,0,1.271-.324,7.12,7.12,0,0,1,.984-.264.63.63,0,0,1,.72.242,1.633,1.633,0,0,1,.12.323.763.763,0,0,1,.013.359.793.793,0,0,1-.193.361,1.444,1.444,0,0,1-.443.323,11.554,11.554,0,0,1-1.751.635,8.561,8.561,0,0,1-2.088.278,6.916,6.916,0,0,1-2.423-.361,5.36,5.36,0,0,1-1.9-1.114,5.184,5.184,0,0,1-1.248-1.8,6.445,6.445,0,0,1-.479-2.437,6.875,6.875,0,0,1,.371-2.469,5.15,5.15,0,0,1,2.939-3.108,6.313,6.313,0,0,1,2.351-.467,6.236,6.236,0,0,1,3.838,1.068A5.083,5.083,0,0,1,1897.163,531.1Zm-5.734-2.494a3.009,3.009,0,0,0-1.02.216,1.92,1.92,0,0,0-.8.624,3.284,3.284,0,0,0-.54,1.138,7.068,7.068,0,0,0-.229,1.788c.416.015.89.025,1.428.025s1.054,0,1.558-.012.951-.016,1.343-.025.66-.012.806-.012a4.949,4.949,0,0,0-.661-2.9A2.088,2.088,0,0,0,1891.429,528.6Z" transform="translate(-1873.747 -522.677)" fill="#fff"/>
    <path id="패스_16" data-name="패스 16" d="M1899.026,523.541q1.346,0,1.345.768l-.1,4.463a2.514,2.514,0,0,1,1.032-.586,5,5,0,0,1,1.3-.2,6.91,6.91,0,0,1,2.051.239,3.567,3.567,0,0,1,1.572.912,4.377,4.377,0,0,1,1.009,1.692,7.894,7.894,0,0,1,.359,2.554,9.909,9.909,0,0,1-.25,2.327,4.8,4.8,0,0,1-.805,1.764,3.64,3.64,0,0,1-1.416,1.127,5.054,5.054,0,0,1-2.111.4,5.337,5.337,0,0,1-1.426-.2,2.553,2.553,0,0,1-1.188-.684c.016.479-.1.791-.361.935a2.215,2.215,0,0,1-1.079.216,1.816,1.816,0,0,1-1.212-.288,1.674,1.674,0,0,1-.348-1.1c-.017-.24-.028-.662-.036-1.273s-.016-1.319-.024-2.135-.016-1.7-.024-2.65-.011-1.89-.011-2.82v-2.616c0-.815.009-1.511.022-2.086q0-.743,1.368-.745Zm3.216,13.747a2.649,2.649,0,0,0,.973-.156,1.319,1.319,0,0,0,.647-.574,3.2,3.2,0,0,0,.36-1.187,14.948,14.948,0,0,0,.108-1.993,6.618,6.618,0,0,0-.419-2.759,1.472,1.472,0,0,0-1.429-.84,1.94,1.94,0,0,0-.946.217,1.534,1.534,0,0,0-.637.7,4.037,4.037,0,0,0-.349,1.236,13.7,13.7,0,0,0-.106,1.858,5.358,5.358,0,0,0,.5,2.651A1.483,1.483,0,0,0,1902.242,537.288Z" transform="translate(-1871.507 -523.302)" fill="#fff"/>
    <path id="패스_17" data-name="패스 17" d="M1918.8,531.1a8.652,8.652,0,0,1,.134,1.236,2.245,2.245,0,0,1-.156.925,1.247,1.247,0,0,1-.553.6,2.1,2.1,0,0,1-1.031.216c-.481.017-1,.029-1.559.038s-1.133.011-1.714.011-1.165,0-1.741-.011-1.112-.012-1.608-.012a3.9,3.9,0,0,0,.4,1.294,2.337,2.337,0,0,0,1.511,1.2,4.152,4.152,0,0,0,1.018.118,8.8,8.8,0,0,0,1.176-.084,6.044,6.044,0,0,0,1.273-.324,7.054,7.054,0,0,1,.985-.264.633.633,0,0,1,.719.242,1.757,1.757,0,0,1,.12.323.752.752,0,0,1-.18.72,1.446,1.446,0,0,1-.445.323,11.535,11.535,0,0,1-1.751.635,8.543,8.543,0,0,1-2.087.278,6.92,6.92,0,0,1-2.423-.361,5.376,5.376,0,0,1-1.9-1.114,5.207,5.207,0,0,1-1.246-1.8,6.438,6.438,0,0,1-.48-2.437,6.919,6.919,0,0,1,.371-2.469,5.149,5.149,0,0,1,2.939-3.108,6.321,6.321,0,0,1,2.352-.467,6.236,6.236,0,0,1,3.838,1.068A5.074,5.074,0,0,1,1918.8,531.1Zm-5.734-2.494a3.018,3.018,0,0,0-1.02.216,1.978,1.978,0,0,0-.8.624,3.376,3.376,0,0,0-.539,1.138,7.271,7.271,0,0,0-.227,1.788c.414.015.892.025,1.428.025s1.055,0,1.559-.012.952-.016,1.344-.025.661-.012.8-.012a4.96,4.96,0,0,0-.659-2.9A2.091,2.091,0,0,0,1913.071,528.6Z" transform="translate(-1869.597 -522.677)" fill="#fff"/>
    <path id="패스_18" data-name="패스 18" d="M1929.006,538.284a10.555,10.555,0,0,1-1.822.6,7.393,7.393,0,0,1-2.015.167,8.817,8.817,0,0,1-2.724-.54,5.527,5.527,0,0,1-2.111-1.4,6.361,6.361,0,0,1-1.355-2.4,11.457,11.457,0,0,1-.479-3.529,10.468,10.468,0,0,1,.407-2.987,6.546,6.546,0,0,1,1.272-2.4,5.981,5.981,0,0,1,2.207-1.605,7.974,7.974,0,0,1,3.217-.589,4.821,4.821,0,0,1,1.786.3,4.468,4.468,0,0,1,1.248.72,3.486,3.486,0,0,1,.757.875,2.983,2.983,0,0,1,.335.769,2.651,2.651,0,0,1,.108.913.636.636,0,0,1-.468.528,1.145,1.145,0,0,1-.671.035.961.961,0,0,1-.577-.563c-.079-.145-.163-.317-.252-.517a2.151,2.151,0,0,0-.4-.586,2.068,2.068,0,0,0-.683-.48,2.546,2.546,0,0,0-1.068-.193,3.2,3.2,0,0,0-1.621.407,3.493,3.493,0,0,0-1.186,1.152,5.725,5.725,0,0,0-.731,1.787,9.791,9.791,0,0,0-.253,2.316,13.8,13.8,0,0,0,.3,3.19,4.833,4.833,0,0,0,.841,1.9,2.686,2.686,0,0,0,1.307.913,5.76,5.76,0,0,0,1.7.24,7.027,7.027,0,0,0,1.1-.084c.353-.056.711-.125,1.079-.205a4.4,4.4,0,0,0,.659-.179c.2-.072.38-.128.54-.169a1.477,1.477,0,0,1,.409-.047.272.272,0,0,1,.239.18Q1930.448,537.589,1929.006,538.284Z" transform="translate(-1867.443 -523.29)" fill="#fff"/>
    <path id="패스_19" data-name="패스 19" d="M1936.118,523.34a1.8,1.8,0,0,1,.84.179,2.175,2.175,0,0,1,.588.469,2.831,2.831,0,0,1,.43.672q.181.384.372.769c.209.462.448,1.024.719,1.678s.561,1.365.866,2.125.611,1.539.924,2.339.6,1.573.875,2.325.52,1.458.743,2.112.4,1.216.528,1.68a.987.987,0,0,1,0,.528.841.841,0,0,1-.251.373,1.808,1.808,0,0,1-.445.274c-.175.082-.366.161-.574.24a1.148,1.148,0,0,1-1.631-.719c-.177-.417-.351-.876-.529-1.38s-.368-1.037-.575-1.595c-.96.063-1.917.1-2.867.107s-1.908-.012-2.868-.059q-.6,1.822-1.1,3.093c-.158.4-.367.629-.624.685a1.931,1.931,0,0,1-1.008-.133c-.206-.079-.4-.156-.575-.228a1.552,1.552,0,0,1-.444-.263.846.846,0,0,1-.252-.36.965.965,0,0,1,0-.515c.114-.4.28-.933.5-1.6s.48-1.382.767-2.159.593-1.585.912-2.435.636-1.66.949-2.434l.863-2.148q.4-.982.685-1.607c.126-.288.255-.552.382-.791a3.029,3.029,0,0,1,.444-.635,1.905,1.905,0,0,1,.577-.433A1.768,1.768,0,0,1,1936.118,523.34Zm-2.209,10.22q1.1.048,2.209.035c.734-.006,1.479-.025,2.23-.057q-.55-1.562-1.115-3.108c-.374-1.031-.749-2-1.114-2.916q-.553,1.275-1.1,2.856T1933.909,533.56Z" transform="translate(-1865.388 -523.34)" fill="#fff"/>
    <path id="패스_20" data-name="패스 20" d="M1943.848,523.48a1.958,1.958,0,0,1,.924.168,1.259,1.259,0,0,1,.467.432l3.744,5.831c.273.415.5.623.672.623s.376-.176.6-.528q1.389-2.136,2.157-3.347c.514-.807.9-1.419,1.153-1.837s.422-.686.5-.814a1.043,1.043,0,0,1,.214-.266,1.011,1.011,0,0,1,.589-.225,5.967,5.967,0,0,1,.612-.038h.336q1.415,0,1.415.792v13.891q0,.842-1.464.84h-.335q-1.391,0-1.393-.791V527.463l-3.095,4.655a2.425,2.425,0,0,1-1.811,1.271q-1.017.074-2.1-1.416l-1.775-2.686v8.876q0,.842-1.464.84h-.335q-1.391,0-1.392-.791V524.249q0-.769,1.439-.769Z" transform="translate(-1862.924 -523.313)" fill="#fff"/>
  </g>
</svg>
