<svg xmlns="http://www.w3.org/2000/svg" id="prefix__그룹_9" width="34.734" height="34.734" data-name="그룹 9" viewBox="0 0 34.734 34.734">
    <defs>
        <style>
            .prefix__cls-1{fill:#b5b5b5}
        </style>
    </defs>
    <path id="prefix__패스_21" d="M1951.895 339.362h-.005z" class="prefix__cls-1" data-name="패스 21" transform="translate(-1932.387 -337.915)"/>
    <g id="prefix__그룹_8" data-name="그룹 8">
        <path id="prefix__패스_22" d="M1954.006 351.9l-.076-.07-.025-.023-13.684-12.44-1.038-.944h-.01.006l-1.089-.99-.11-.1a1.433 1.433 0 0 0-1.95.064l-.012.011-1.118 1.016-1.038.943-13.7 12.456-.046.042-.012.011a1.446 1.446 0 0 0 1.855 2.2l.138-.126.109-.1 13.8-12.542.007.006a1.439 1.439 0 0 1 2.076 0l13.822 12.566.09.082.067.061a1.442 1.442 0 0 0 1.946-2.122z" class="prefix__cls-1" data-name="패스 22" transform="translate(-1919.674 -336.974)"/>
        <path id="prefix__패스_23" d="M1953.374 359.562a1.435 1.435 0 0 0-.376-.733l-.076-.07-.026-.023-10.789-9.809-1.038-.944h-.01.006l-1.089-.99-.11-.1a1.432 1.432 0 0 0-1.95.063l-.012.011-1.118 1.016-1.038.944-10.807 9.83-.046.042-.012.011a1.44 1.44 0 0 0-.394.752h-.028v14.472a1.447 1.447 0 0 0 1.447 1.448h7.236V363.9a1.447 1.447 0 0 1 1.447-1.447h8.685a1.448 1.448 0 0 1 1.448 1.447v11.579h7.237a1.447 1.447 0 0 0 1.447-1.448v-14.469z" class="prefix__cls-1" data-name="패스 23" transform="translate(-1921.561 -340.748)"/>
    </g>
</svg>
