<svg xmlns="http://www.w3.org/2000/svg" width="35" height="35.002" viewBox="0 0 35 35.002">
    <path id="prefix__패스_135" fill="#68c0b5" d="M-1070.528 639.089h-3.379c-.089-.315-.205-.629-.322-.93l-.03-.073c-.147-.329-.288-.651-.456-.972l2.358-2.354.029-.02a1.425 1.425 0 0 0 0-2.015l-3.813-3.808v.007a1.407 1.407 0 0 0-2-.007l-2.387 2.392a9.455 9.455 0 0 0-.976-.454 10.119 10.119 0 0 0-.99-.365v-3.373a1.422 1.422 0 0 0-1.427-1.419h-5.377a1.419 1.419 0 0 0-1.423 1.419v3.373a10.115 10.115 0 0 0-1 .365 10.663 10.663 0 0 0-.972.454l-2.315-2.32-.064-.064a1.424 1.424 0 0 0-2.016 0l-3.781 3.77-.025.03a1.44 1.44 0 0 0 0 2.022l2.392 2.385c-.152.289-.286.583-.418.883l-.029.08c-.14.322-.259.658-.372.994h-3.377a1.419 1.419 0 0 0-1.418 1.418v5.393a1.419 1.419 0 0 0 1.418 1.419h3.384q.158.472.34.921l.029.075c.134.327.284.651.445.965l-2.318 2.317-.068.068a1.414 1.414 0 0 0 0 2.011l3.777 3.779.028.022a1.419 1.419 0 0 0 2.009 0l2.39-2.385c.291.146.584.279.885.409l.07.03q.49.207 1 .372v3.379a1.42 1.42 0 0 0 1.423 1.419h5.381a1.421 1.421 0 0 0 1.427-1.419V655.9c.338-.111.678-.234 1-.365s.642-.288.962-.447l2.358 2.363.026.022a1.421 1.421 0 0 0 2.011 0l3.777-3.772.029-.029a1.421 1.421 0 0 0 0-2.011l-2.387-2.385a9.9 9.9 0 0 0 .442-.965 8.5 8.5 0 0 0 .366-1h3.379a1.424 1.424 0 0 0 1.417-1.419v-5.384a1.411 1.411 0 0 0-1.417-1.418zm-1.419 5.383h-3.023a1.42 1.42 0 0 0-1.407 1.192 11.119 11.119 0 0 1-.511 1.559 10.309 10.309 0 0 1-.8 1.536 1.441 1.441 0 0 0 .195 1.763l2.143 2.143-1.8 1.8-2.144-2.147a1.422 1.422 0 0 0-1.841-.139 10.575 10.575 0 0 1-1.448.738 9.945 9.945 0 0 1-1.65.524 1.434 1.434 0 0 0-1.1 1.391v3.026h-2.546v-3.026a1.419 1.419 0 0 0-1.192-1.405 10.846 10.846 0 0 1-1.562-.509l-.072-.032a10.869 10.869 0 0 1-1.468-.758 1.4 1.4 0 0 0-1.752.2l-.007-.011-2.141 2.147-1.8-1.8 2.15-2.154a1.41 1.41 0 0 0 .2-1.738v-.007a9.869 9.869 0 0 1-.792-1.543l-.031-.073a10.344 10.344 0 0 1-.5-1.566 1.423 1.423 0 0 0-1.384-1.1v-.007h-3.037v-2.538h3.031a1.429 1.429 0 0 0 1.405-1.193 10.472 10.472 0 0 1 .51-1.564l.02-.059a10.572 10.572 0 0 1 .771-1.484 1.408 1.408 0 0 0-.2-1.748v-.007l-2.143-2.142 1.8-1.8 2.138 2.133a1.406 1.406 0 0 0 1.77.189 12.041 12.041 0 0 1 1.537-.786 10.039 10.039 0 0 1 1.641-.527 1.4 1.4 0 0 0 1.1-1.375h.007v-3.028h2.546v3.028a1.433 1.433 0 0 0 1.189 1.405 9.044 9.044 0 0 1 1.553.5 9.72 9.72 0 0 1 1.55.8 1.422 1.422 0 0 0 1.8-.257l2.09-2.083 1.8 1.8-2.143 2.134a1.428 1.428 0 0 0-.152 1.827 10.053 10.053 0 0 1 .753 1.478l.036.072a10.385 10.385 0 0 1 .5 1.573 1.407 1.407 0 0 0 1.383 1.1h3.039l-.016 2.546zm-14.659-7.267a5.989 5.989 0 0 0-4.238 1.752 6.013 6.013 0 0 0-1.761 4.242 6 6 0 0 0 1.761 4.235 5.983 5.983 0 0 0 4.238 1.756 5.977 5.977 0 0 0 4.237-1.756 5.973 5.973 0 0 0 1.759-4.235 5.981 5.981 0 0 0-1.759-4.242 5.982 5.982 0 0 0-4.237-1.752zm3.034 9.024a4.287 4.287 0 0 1-3.034 1.257 4.285 4.285 0 0 1-3.032-1.257 4.3 4.3 0 0 1-1.255-3.03 4.327 4.327 0 0 1 1.255-3.042 4.3 4.3 0 0 1 3.032-1.25 4.3 4.3 0 0 1 3.034 1.25 4.315 4.315 0 0 1 1.259 3.042 4.286 4.286 0 0 1-1.259 3.03z" data-name="패스 135" transform="translate(1104.111 -625.698)"/>
</svg>
