<svg xmlns="http://www.w3.org/2000/svg" id="prefix__그룹_11" width="34.736" height="34.735" data-name="그룹 11" viewBox="0 0 34.736 34.735">
    <defs>
        <style>
            .prefix__cls-1{fill:#b5b5b5}
        </style>
    </defs>
    <path id="prefix__패스_27" d="M1858.517 400.584a1.447 1.447 0 0 0-1.447-1.447h-2.894a1.447 1.447 0 0 0-1.447 1.447v10.131a1.447 1.447 0 0 0 1.447 1.445h2.894a1.447 1.447 0 0 0 1.447-1.445z" class="prefix__cls-1" data-name="패스 27" transform="translate(-1852.728 -399.137)"/>
    <path id="prefix__패스_28" d="M1870.472 400.584a1.447 1.447 0 0 0-1.447-1.447h-2.893a1.447 1.447 0 0 0-1.447 1.447v10.131a1.446 1.446 0 0 0 1.447 1.445h2.893a1.447 1.447 0 0 0 1.447-1.445z" class="prefix__cls-1" data-name="패스 28" transform="translate(-1857.446 -399.137)"/>
    <path id="prefix__패스_29" d="M1882.427 400.584a1.447 1.447 0 0 0-1.447-1.447h-2.894a1.447 1.447 0 0 0-1.446 1.447v10.131a1.446 1.446 0 0 0 1.446 1.445h2.894a1.447 1.447 0 0 0 1.447-1.445z" class="prefix__cls-1" data-name="패스 29" transform="translate(-1862.165 -399.137)"/>
    <path id="prefix__패스_30" d="M1894.382 400.584a1.447 1.447 0 0 0-1.446-1.447h-2.894a1.447 1.447 0 0 0-1.446 1.447v10.131a1.447 1.447 0 0 0 1.446 1.445h2.894a1.447 1.447 0 0 0 1.446-1.445z" class="prefix__cls-1" data-name="패스 30" transform="translate(-1866.883 -399.137)"/>
    <path id="prefix__패스_31" d="M1906.338 400.584a1.447 1.447 0 0 0-1.446-1.447H1902a1.446 1.446 0 0 0-1.446 1.447v10.131a1.446 1.446 0 0 0 1.446 1.445h2.894a1.447 1.447 0 0 0 1.446-1.445z" class="prefix__cls-1" data-name="패스 31" transform="translate(-1871.601 -399.137)"/>
    <path id="prefix__패스_32" d="M1886.016 423.044h-31.84a1.447 1.447 0 0 0-1.448 1.447v17.368a1.448 1.448 0 0 0 1.448 1.448h10.13v-13.026a1.448 1.448 0 0 1 1.447-1.447h8.685a1.447 1.447 0 0 1 1.447 1.447v13.025h10.132a1.447 1.447 0 0 0 1.447-1.442v-17.38a1.447 1.447 0 0 0-1.448-1.44z" class="prefix__cls-1" data-name="패스 32" transform="translate(-1852.728 -408.572)"/>
</svg>
