<svg xmlns="http://www.w3.org/2000/svg" id="prefix__그룹_10" width="34.735" height="34.736" data-name="그룹 10" viewBox="0 0 34.735 34.736">
    <defs>
        <style>
            .prefix__cls-1{fill:#b5b5b5}
        </style>
    </defs>
    <path id="prefix__패스_24" d="M2008.11 337.4l-19.444 19.444-2.047 6.14 6.142-2.046 19.444-19.444a1.448 1.448 0 0 0 0-2.047l-2.047-2.047a1.447 1.447 0 0 0-2.048 0z" class="prefix__cls-1" data-name="패스 24" transform="translate(-1986.618 -336.972)"/>
    <path id="prefix__패스_25" d="M2002.414 346.537a1.447 1.447 0 0 0-1.447 1.447v3.955l5.4-5.4z" class="prefix__cls-1" data-name="패스 25" transform="translate(-1992.28 -340.747)"/>
    <path id="prefix__패스_26" d="M2027.014 347.984a1.447 1.447 0 0 0-1.447-1.447h-6.919l-17.684 17.684v9.814a1.447 1.447 0 0 0 1.447 1.448h23.156a1.447 1.447 0 0 0 1.447-1.448v-26.05zm-4.341 18.814h-18.814v-1.447l1.448-1.448h17.367a1.446 1.446 0 1 1 0 2.893zm0-5.789H2008.2l2.894-2.894h11.577a1.446 1.446 0 1 1 0 2.893zm0-5.789h-8.683l2.894-2.894h5.79a1.446 1.446 0 1 1 0 2.893z" class="prefix__cls-1" data-name="패스 26" transform="translate(-1992.28 -340.747)"/>
</svg>
