<svg xmlns="http://www.w3.org/2000/svg" id="prefix__그룹_12" width="34.737" height="34.736" data-name="그룹 12" viewBox="0 0 34.737 34.736">
    <defs>
        <style>
            .prefix__cls-1{fill:#b5b5b5}
        </style>
    </defs>
    <path id="prefix__패스_34" d="M2021.086 446.9c-.037-.079-.07-.16-.108-.238a18.86 18.86 0 0 0-1.255-2.237 19.066 19.066 0 0 0-9.237-7.413 12.937 12.937 0 0 1-13.367 0 19.074 19.074 0 0 0-10.49 9.645c-.039.082-.074.165-.112.247a1.428 1.428 0 0 0-.083.467 1.448 1.448 0 0 0 1.436 1.447h31.864a1.448 1.448 0 0 0 1.436-1.447 1.431 1.431 0 0 0-.084-.471z" class="prefix__cls-1" data-name="패스 34" transform="translate(-1986.434 -414.086)"/>
    <path id="prefix__패스_35" d="M2007.459 399.137a11.762 11.762 0 1 0 11.762 11.762 11.762 11.762 0 0 0-11.762-11.762zm2.789 17.087a.115.115 0 0 1-.015.021 3.393 3.393 0 0 1-5.548 0 .1.1 0 0 1-.013-.02.9.9 0 0 1-.15-.5.9.9 0 0 1 1.645-.519 1.606 1.606 0 0 0 .617.52 1.588 1.588 0 0 0 1.355 0 1.6 1.6 0 0 0 .618-.522.9.9 0 0 1 1.493 1.021z" class="prefix__cls-1" data-name="패스 35" transform="translate(-1990.09 -399.137)"/>
</svg>
