<svg xmlns="http://www.w3.org/2000/svg" width="172.192" height="44.037" viewBox="0 0 172.192 44.037">
    <defs>
        <style>
            .prefix__cls-1{fill:#fff}
        </style>
    </defs>
    <g id="prefix__그룹_162" data-name="그룹 162" transform="translate(-1382.923 -516.184)">
        <g id="prefix__그룹_46" data-name="그룹 46" transform="translate(1382.923 516.184)">
            <path id="prefix__패스_42" d="M1404.941 516.184a22.018 22.018 0 1 0 22.019 22.016 22.019 22.019 0 0 0-22.019-22.016zm0 40.65a18.632 18.632 0 1 1 18.631-18.631 18.632 18.632 0 0 1-18.631 18.631z" class="prefix__cls-1" data-name="패스 42" transform="translate(-1382.923 -516.184)"/>
            <path id="prefix__패스_43" d="M1398.854 532.183a1.683 1.683 0 0 0 1.382-.718 2.967 2.967 0 0 1 4.852 0 1.694 1.694 0 0 0 2.8-1.908c-.007-.012-.019-.022-.026-.036l-.005-.007a6.352 6.352 0 0 0-10.384 0c-.009.014-.021.028-.028.04a1.692 1.692 0 0 0 1.413 2.629z" class="prefix__cls-1" data-name="패스 43" transform="translate(-1372.599 -508.472)"/>
        </g>
        <g id="prefix__그룹_48" data-name="그룹 48" transform="translate(1442.534 528.537)">
            <g id="prefix__그룹_47" data-name="그룹 47">
                <path id="prefix__패스_44" d="M1419.559 543.937q-2.083 0-2.084-1.182v-15.039q0-1.214 2.153-1.216h.45c1.322 0 2 .347 2.05 1.044.531-.069 1.09-.141 1.67-.209s1.2-.15 1.875-.245a5.8 5.8 0 0 1 1.962.053 3.64 3.64 0 0 1 1.563.749 3.866 3.866 0 0 1 1.077 1.51 7.226 7.226 0 0 1 .468 2.412v.8a1.743 1.743 0 0 1-.5 1.479 4 4 0 0 1-2.1.364 3.035 3.035 0 0 1-1.147-.174 1.4 1.4 0 0 1-.64-.5 1.731 1.731 0 0 1-.28-.782 9.053 9.053 0 0 1-.05-.975v-.59a2.035 2.035 0 0 0-.471-1.458 1.851 1.851 0 0 0-1.373-.176c-.367.048-.723.095-1.058.142s-.664.091-.99.138v12.748q0 1.113-2.119 1.111z" class="prefix__cls-1" data-name="패스 44" transform="translate(-1417.475 -521.056)"/>
                <path id="prefix__패스_45" d="M1443.2 533.02a12.134 12.134 0 0 1 .191 1.789 3.191 3.191 0 0 1-.224 1.339 1.8 1.8 0 0 1-.8.866 3.046 3.046 0 0 1-1.492.312q-1.043.036-2.257.055c-.811.01-1.641.016-2.484.016s-1.686-.005-2.521-.016-1.606-.017-2.326-.017a5.679 5.679 0 0 0 .573 1.874 3.474 3.474 0 0 0 .956 1.146 3.519 3.519 0 0 0 1.232.594 6.062 6.062 0 0 0 1.479.171 12.77 12.77 0 0 0 1.7-.121 8.7 8.7 0 0 0 1.839-.469 10.326 10.326 0 0 1 1.425-.383.919.919 0 0 1 1.044.35 2.592 2.592 0 0 1 .174.468 1.15 1.15 0 0 1 .016.519 1.174 1.174 0 0 1-.278.523 2.1 2.1 0 0 1-.644.468 16.781 16.781 0 0 1-2.534.92 12.373 12.373 0 0 1-3.024.4 10.021 10.021 0 0 1-3.508-.523 7.784 7.784 0 0 1-2.745-1.613 7.494 7.494 0 0 1-1.8-2.605 9.361 9.361 0 0 1-.7-3.528 10 10 0 0 1 .538-3.575 7.443 7.443 0 0 1 4.254-4.5 9.144 9.144 0 0 1 3.406-.676 9.036 9.036 0 0 1 5.557 1.546 7.346 7.346 0 0 1 2.953 4.67zm-8.3-3.611a4.362 4.362 0 0 0-1.475.312 2.815 2.815 0 0 0-1.163.9 4.8 4.8 0 0 0-.783 1.648 10.5 10.5 0 0 0-.329 2.588c.6.022 1.292.036 2.069.036s1.527-.007 2.257-.017 1.376-.022 1.946-.036.956-.017 1.161-.017a7.164 7.164 0 0 0-.954-4.2 3.022 3.022 0 0 0-2.729-1.214z" class="prefix__cls-1" data-name="패스 45" transform="translate(-1410.935 -520.837)"/>
                <path id="prefix__패스_46" d="M1447.487 546.395a2.811 2.811 0 0 1-2.065-.849 7.041 7.041 0 0 1-1.408-2.065q-.8-1.739-1.753-4.085t-1.894-4.827q-.937-2.482-1.736-4.826t-1.285-4.08a1.1 1.1 0 0 1 .469-1.3 8.643 8.643 0 0 1 1.58-.783 2.8 2.8 0 0 1 1.458-.191q.554.127.9.99.59 1.532 1.389 3.8t1.668 4.743q.867 2.466 1.736 4.845t1.6 4.08q.761-1.8 1.63-4.063t1.686-4.532q.812-2.275 1.544-4.361t1.216-3.611a1.9 1.9 0 0 1 .783-1.146 1.653 1.653 0 0 1 1.37.033 2.905 2.905 0 0 1 .937.54c.21.2.243.6.105 1.2q-.52 1.91-1.3 4.147t-1.667 4.57q-.885 2.324-1.823 4.582t-1.808 4.172c-.185.393-.376.768-.571 1.128a4.345 4.345 0 0 1-.7.954 3.439 3.439 0 0 1-.9.678 2.53 2.53 0 0 1-1.161.257z" class="prefix__cls-1" data-name="패스 46" transform="translate(-1403.099 -523.341)"/>
                <path id="prefix__패스_47" d="M1453.344 523.48q2.05 0 2.048 1.147v20.109q0 1.219-2.118 1.216h-.487q-2.013 0-2.015-1.146v-20.213c0-.742.7-1.113 2.084-1.113z" class="prefix__cls-1" data-name="패스 47" transform="translate(-1393.327 -523.246)"/>
                <path id="prefix__패스_48" d="M1469.228 526.294q-2.187.173-4.341.193c-1.437.009-2.881-.007-4.341-.055v7.262q1.977.067 3.854.017t3.994-.159c1.413-.019 2.118.418 2.118 1.322a1.035 1.035 0 0 1-.468.816 2.966 2.966 0 0 1-1.582.435q-2.153.171-4.044.209c-1.263.022-2.555.014-3.873-.035v7.12c1.46.048 2.9.05 4.322.017s2.855-.088 4.292-.155q2.117-.036 2.117 1.318a1.042 1.042 0 0 1-.466.818 2.927 2.927 0 0 1-1.584.431c-1.711.119-3.414.179-5.1.193s-3.381-.031-5.074-.122a1.525 1.525 0 0 1-.309.034h-.8c-1.346 0-2.013-.381-2.013-1.146v-20.214q0-1.113 2.081-1.113h.49a2.977 2.977 0 0 1 1.665.381q2.293.07 4.515.021c1.482-.038 2.976-.088 4.482-.159 1.411-.021 2.117.417 2.117 1.322a1.039 1.039 0 0 1-.466.814 2.954 2.954 0 0 1-1.586.435z" class="prefix__cls-1" data-name="패스 48" transform="translate(-1389.587 -523.246)"/>
                <path id="prefix__패스_49" d="M1486.74 546.4a3.212 3.212 0 0 1-2.172-.832 5.238 5.238 0 0 1-1.44-2.082q-.662-1.705-1.354-3.98t-1.356-4.7q-.626 2.29-1.32 4.5c-.464 1.472-.927 2.829-1.39 4.083a7.188 7.188 0 0 1-1.232 2.1 2.619 2.619 0 0 1-2.1.919 3.207 3.207 0 0 1-2.17-.832 5.256 5.256 0 0 1-1.442-2.082q-.66-1.739-1.372-4.085t-1.392-4.837q-.678-2.482-1.252-4.826t-.919-4.08a1.133 1.133 0 0 1 .053-.766 1.527 1.527 0 0 1 .486-.555 3.44 3.44 0 0 1 .763-.418c.29-.116.583-.229.886-.349a3.26 3.26 0 0 1 1.546-.209c.43.071.7.409.816 1.008.115.671.271 1.467.469 2.379s.429 1.894.694 2.935.545 2.12.833 3.233.592 2.2.9 3.264.618 2.082.919 3.055.58 1.841.835 2.605q.52-1.454 1.023-3.178t.973-3.526q.469-1.806.9-3.613t.781-3.366c-.207-.9-.38-1.739-.519-2.5a1.107 1.107 0 0 1 .052-.766 1.572 1.572 0 0 1 .485-.555 3.517 3.517 0 0 1 .762-.418c.29-.116.588-.229.888-.349a3.257 3.257 0 0 1 1.546-.209c.428.071.7.409.814 1.008.117.671.272 1.467.471 2.379s.428 1.894.7 2.935.542 2.12.832 3.233.59 2.2.9 3.264.619 2.082.921 3.055.578 1.841.833 2.605q.624-1.8 1.266-4.063t1.216-4.532q.574-2.275 1.059-4.361t.8-3.611q.347-1.77 2.153-1.113a2.953 2.953 0 0 1 .938.54c.207.2.243.6.105 1.2q-.417 1.91-.956 4.147t-1.165 4.57q-.624 2.324-1.318 4.582t-1.425 4.172a7.155 7.155 0 0 1-1.235 2.1 2.61 2.61 0 0 1-2.089.922z" class="prefix__cls-1" data-name="패스 49" transform="translate(-1382.437 -523.344)"/>
            </g>
        </g>
    </g>
</svg>
