<svg xmlns="http://www.w3.org/2000/svg" width="144.677" height="37" viewBox="0 0 144.677 37">
    <defs>
        <style>
            .prefix__cls-1{fill:#5ab5a7}.prefix__cls-2{fill:#5d5c5c}.prefix__cls-3{fill:#161615}
        </style>
    </defs>
    <g id="prefix__그룹_151" data-name="그룹 151" transform="translate(-1382.923 -516.184)">
        <g id="prefix__그룹_65" data-name="그룹 65" transform="translate(1382.923 516.184)">
            <path id="prefix__패스_51" d="M1401.422 516.184a18.5 18.5 0 1 0 18.5 18.5 18.5 18.5 0 0 0-18.5-18.5zm0 34.154a15.655 15.655 0 1 1 15.654-15.654 15.655 15.655 0 0 1-15.654 15.655z" class="prefix__cls-1" data-name="패스 51" transform="translate(-1382.923 -516.184)"/>
            <path id="prefix__패스_52" d="M1398.583 531.326a1.414 1.414 0 0 0 1.161-.6 2.493 2.493 0 0 1 4.076 0 1.423 1.423 0 0 0 2.351-1.6c-.006-.01-.016-.019-.022-.03v-.006a5.337 5.337 0 0 0-8.725 0c-.007.012-.017.023-.023.033a1.422 1.422 0 0 0 1.187 2.209z" class="prefix__cls-1" data-name="패스 52" transform="translate(-1376.524 -511.403)"/>
        </g>
        <g id="prefix__그룹_67" data-name="그룹 67" transform="translate(1433.008 526.563)">
            <g id="prefix__그룹_66" data-name="그룹 66">
                <path id="prefix__패스_53" d="M1419.226 541.151q-1.75 0-1.751-.993v-12.636q0-1.02 1.809-1.022h.378q1.666 0 1.722.877c.447-.058.916-.119 1.4-.175s1.009-.126 1.576-.206a4.872 4.872 0 0 1 1.648.045 3.059 3.059 0 0 1 1.313.629 3.247 3.247 0 0 1 .9 1.268 6.076 6.076 0 0 1 .393 2.026v.671a1.465 1.465 0 0 1-.423 1.242 3.363 3.363 0 0 1-1.766.306 2.552 2.552 0 0 1-.964-.146 1.179 1.179 0 0 1-.538-.422 1.454 1.454 0 0 1-.235-.657 7.583 7.583 0 0 1-.042-.819v-.5a1.71 1.71 0 0 0-.4-1.225 1.555 1.555 0 0 0-1.154-.148c-.309.041-.608.08-.889.119l-.832.116v10.711q0 .935-1.78.934z" class="prefix__cls-2" data-name="패스 53" transform="translate(-1417.475 -521.926)"/>
                <path id="prefix__패스_54" d="M1440.531 532.027a10.2 10.2 0 0 1 .161 1.5 2.68 2.68 0 0 1-.189 1.125 1.513 1.513 0 0 1-.672.728 2.561 2.561 0 0 1-1.254.262q-.876.031-1.9.046c-.681.009-1.379.013-2.087.013s-1.416 0-2.118-.013-1.35-.014-1.954-.014a4.77 4.77 0 0 0 .481 1.574 2.919 2.919 0 0 0 .8.962 2.955 2.955 0 0 0 1.035.5 5.091 5.091 0 0 0 1.242.143 10.735 10.735 0 0 0 1.429-.1 7.327 7.327 0 0 0 1.545-.394 8.665 8.665 0 0 1 1.2-.322.772.772 0 0 1 .877.294 2.186 2.186 0 0 1 .146.393.966.966 0 0 1 .013.436.987.987 0 0 1-.233.439 1.765 1.765 0 0 1-.541.393 14.093 14.093 0 0 1-2.129.773 10.39 10.39 0 0 1-2.541.338 8.42 8.42 0 0 1-2.947-.439 6.538 6.538 0 0 1-2.306-1.355 6.3 6.3 0 0 1-1.515-2.189 7.864 7.864 0 0 1-.584-2.964 8.39 8.39 0 0 1 .452-3 6.253 6.253 0 0 1 3.574-3.78 7.683 7.683 0 0 1 2.861-.568 7.592 7.592 0 0 1 4.669 1.3 6.172 6.172 0 0 1 2.485 3.919zm-6.975-3.034a3.665 3.665 0 0 0-1.24.262 2.367 2.367 0 0 0-.977.76 4.034 4.034 0 0 0-.658 1.384 8.826 8.826 0 0 0-.277 2.174c.506.019 1.086.03 1.738.03s1.283-.006 1.9-.015 1.157-.019 1.635-.03.8-.015.975-.015a6.02 6.02 0 0 0-.8-3.53 2.539 2.539 0 0 0-2.297-1.02z" class="prefix__cls-2" data-name="패스 54" transform="translate(-1413.421 -521.79)"/>
                <path id="prefix__패스_55" d="M1445.858 542.712a2.362 2.362 0 0 1-1.735-.713 5.919 5.919 0 0 1-1.183-1.735q-.669-1.461-1.473-3.432t-1.591-4.056q-.787-2.085-1.458-4.054t-1.08-3.428a.923.923 0 0 1 .394-1.1 7.258 7.258 0 0 1 1.328-.658 2.353 2.353 0 0 1 1.225-.161q.465.107.758.832.5 1.287 1.167 3.2t1.4 3.985q.728 2.072 1.458 4.07t1.345 3.428q.639-1.516 1.37-3.414t1.416-3.808q.683-1.911 1.3-3.665t1.022-3.034a1.594 1.594 0 0 1 .658-.962 1.389 1.389 0 0 1 1.151.028 2.441 2.441 0 0 1 .787.454c.177.167.2.5.088 1.008q-.437 1.6-1.094 3.485t-1.4 3.84q-.744 1.952-1.532 3.85t-1.519 3.505c-.155.331-.316.645-.48.948a3.65 3.65 0 0 1-.585.8 2.886 2.886 0 0 1-.757.57 2.126 2.126 0 0 1-.98.217z" class="prefix__cls-3" data-name="패스 55" transform="translate(-1408.564 -523.342)"/>
                <path id="prefix__패스_56" d="M1452.933 523.48q1.722 0 1.72.964v16.9q0 1.024-1.78 1.022h-.409q-1.692 0-1.693-.963v-16.988c0-.623.586-.935 1.751-.935z" class="prefix__cls-3" data-name="패스 56" transform="translate(-1402.506 -523.284)"/>
                <path id="prefix__패스_57" d="M1467.1 525.844q-1.837.146-3.647.162c-1.208.007-2.421-.006-3.647-.046v6.1q1.661.056 3.238.014c1.052-.027 2.17-.074 3.356-.133 1.187-.016 1.78.351 1.78 1.11a.869.869 0 0 1-.393.686 2.492 2.492 0 0 1-1.329.365q-1.809.143-3.4.175c-1.061.019-2.147.012-3.254-.029v5.982c1.227.041 2.437.042 3.631.015s2.4-.074 3.606-.13q1.779-.03 1.779 1.107a.876.876 0 0 1-.391.687 2.459 2.459 0 0 1-1.331.362c-1.438.1-2.869.151-4.288.162s-2.841-.026-4.263-.1a1.279 1.279 0 0 1-.26.029h-.672c-1.131 0-1.692-.32-1.692-.963v-16.984q0-.935 1.748-.935h.412a2.5 2.5 0 0 1 1.4.32q1.926.059 3.793.017c1.245-.032 2.5-.074 3.766-.133 1.186-.017 1.779.351 1.779 1.11a.873.873 0 0 1-.391.684 2.482 2.482 0 0 1-1.33.366z" class="prefix__cls-3" data-name="패스 57" transform="translate(-1400.188 -523.284)"/>
                <path id="prefix__패스_58" d="M1483.392 542.714a2.7 2.7 0 0 1-1.825-.7 4.4 4.4 0 0 1-1.21-1.75q-.557-1.433-1.138-3.344t-1.139-3.953q-.526 1.924-1.109 3.777c-.39 1.236-.778 2.377-1.168 3.431a6.04 6.04 0 0 1-1.035 1.764 2.2 2.2 0 0 1-1.766.772 2.7 2.7 0 0 1-1.824-.7 4.416 4.416 0 0 1-1.212-1.75q-.554-1.461-1.152-3.432t-1.167-4.056q-.57-2.085-1.052-4.054t-.773-3.428a.955.955 0 0 1 .045-.644 1.286 1.286 0 0 1 .409-.467 2.891 2.891 0 0 1 .641-.351c.244-.1.49-.193.745-.293a2.738 2.738 0 0 1 1.3-.175c.361.059.589.344.686.846.1.564.227 1.232.394 2s.361 1.592.583 2.466.458 1.781.7 2.716.5 1.848.76 2.743.519 1.75.772 2.567.487 1.547.7 2.189q.437-1.222.86-2.67t.817-2.963q.394-1.518.758-3.035t.657-2.828c-.174-.76-.319-1.461-.437-2.1a.93.93 0 0 1 .044-.644 1.321 1.321 0 0 1 .407-.467 2.956 2.956 0 0 1 .641-.351c.244-.1.494-.193.746-.293a2.735 2.735 0 0 1 1.3-.175c.36.059.587.344.684.846.1.564.229 1.232.4 2s.36 1.592.584 2.466.455 1.781.7 2.716.5 1.848.76 2.743.52 1.75.774 2.567.486 1.547.7 2.189q.524-1.515 1.064-3.414t1.022-3.808q.482-1.911.89-3.665t.671-3.034q.292-1.487 1.809-.935a2.483 2.483 0 0 1 .789.454c.174.167.2.5.088 1.007q-.35 1.6-.8 3.485t-.979 3.84q-.524 1.953-1.108 3.85t-1.2 3.505a6.013 6.013 0 0 1-1.038 1.764 2.194 2.194 0 0 1-1.768.776z" class="prefix__cls-3" data-name="패스 58" transform="translate(-1395.755 -523.344)"/>
            </g>
        </g>
    </g>
</svg>
